<svg xmlns="http://www.w3.org/2000/svg" version="1.1" xmlns:xlink="http://www.w3.org/1999/xlink" xmlns:svgjs="http://svgjs.dev/svgjs" width="1440" height="560" preserveAspectRatio="none" viewBox="0 0 1440 560"><g mask="url(&quot;#SvgjsMask1038&quot;)" fill="none"><rect width="1440" height="560" x="0" y="0" fill="url(&quot;#SvgjsLinearGradient1039&quot;)"></rect><path d="M1440 0L1019.3199999999999 0L1440 52.62z" fill="rgba(255, 255, 255, .1)"></path><path d="M1019.3199999999999 0L1440 52.62L1440 259.81L740.2199999999999 0z" fill="rgba(255, 255, 255, .075)"></path><path d="M740.22 0L1440 259.81L1440 430.75L342.13000000000005 0z" fill="rgba(255, 255, 255, .05)"></path><path d="M342.1300000000001 0L1440 430.75L1440 480.29L335.7600000000001 0z" fill="rgba(255, 255, 255, .025)"></path><path d="M0 560L462.78 560L0 349.89z" fill="rgba(0, 0, 0, .1)"></path><path d="M0 349.89L462.78 560L830.3299999999999 560L0 243.73z" fill="rgba(0, 0, 0, .075)"></path><path d="M0 243.73000000000002L830.3299999999999 560L989.31 560L0 233.26000000000002z" fill="rgba(0, 0, 0, .05)"></path><path d="M0 233.26L989.31 560L1296.26 560L0 72.69999999999999z" fill="rgba(0, 0, 0, .025)"></path></g><defs><mask id="SvgjsMask1038"><rect width="1440" height="560" fill="#ffffff"></rect></mask><linearGradient x1="15.28%" y1="-39.29%" x2="84.72%" y2="139.29%" gradientUnits="userSpaceOnUse" id="SvgjsLinearGradient1039"><stop stop-color="#0e2a47" offset="0"></stop><stop stop-color="rgba(0, 65, 149, 1)" offset="1"></stop></linearGradient></defs></svg>